<mxfile host="app.diagrams.net" modified="2023-09-16T22:27:30.564Z" agent="Mozilla/5.0 (Windows NT 10.0; Win64; x64) AppleWebKit/537.36 (KHTML, like Gecko) Chrome/116.0.0.0 Safari/537.36" etag="LfAvaGWjYpGOdOnA5RR6" version="21.6.8" type="github">
  <diagram name="PÃ¡gina-1" id="gAhEPhjO_lKpxTiL0pb8">
    <mxGraphModel dx="2289" dy="622" grid="1" gridSize="10" guides="1" tooltips="1" connect="1" arrows="1" fold="1" page="1" pageScale="1" pageWidth="827" pageHeight="1169" math="0" shadow="0">
      <root>
        <mxCell id="0" />
        <mxCell id="1" parent="0" />
        <mxCell id="npG9SeMGYt-nMeT8o7ZW-240" value="" style="rhombus;whiteSpace=wrap;html=1;" vertex="1" parent="1">
          <mxGeometry x="940" y="315" width="80" height="90" as="geometry" />
        </mxCell>
        <mxCell id="npG9SeMGYt-nMeT8o7ZW-235" value="" style="rounded=0;whiteSpace=wrap;html=1;" vertex="1" parent="1">
          <mxGeometry x="1070" y="195" width="140" height="70" as="geometry" />
        </mxCell>
        <mxCell id="npG9SeMGYt-nMeT8o7ZW-226" style="edgeStyle=orthogonalEdgeStyle;rounded=0;orthogonalLoop=1;jettySize=auto;html=1;exitX=0;exitY=0.5;exitDx=0;exitDy=0;entryX=0;entryY=1;entryDx=0;entryDy=0;" edge="1" parent="1" source="npG9SeMGYt-nMeT8o7ZW-1" target="npG9SeMGYt-nMeT8o7ZW-41">
          <mxGeometry relative="1" as="geometry">
            <mxPoint x="-100" y="410" as="targetPoint" />
            <Array as="points">
              <mxPoint x="-100" y="40" />
              <mxPoint x="-100" y="400" />
            </Array>
          </mxGeometry>
        </mxCell>
        <mxCell id="npG9SeMGYt-nMeT8o7ZW-236" style="edgeStyle=orthogonalEdgeStyle;rounded=0;orthogonalLoop=1;jettySize=auto;html=1;exitX=1;exitY=0.5;exitDx=0;exitDy=0;entryX=0.5;entryY=0;entryDx=0;entryDy=0;" edge="1" parent="1" source="npG9SeMGYt-nMeT8o7ZW-1" target="npG9SeMGYt-nMeT8o7ZW-234">
          <mxGeometry relative="1" as="geometry">
            <mxPoint x="1150.0000000000005" y="40" as="targetPoint" />
          </mxGeometry>
        </mxCell>
        <mxCell id="npG9SeMGYt-nMeT8o7ZW-1" value="pertence" style="rhombus;whiteSpace=wrap;html=1;" vertex="1" parent="1">
          <mxGeometry x="360" width="106" height="80" as="geometry" />
        </mxCell>
        <mxCell id="npG9SeMGYt-nMeT8o7ZW-38" style="edgeStyle=orthogonalEdgeStyle;rounded=0;orthogonalLoop=1;jettySize=auto;html=1;exitX=0.5;exitY=1;exitDx=0;exitDy=0;entryX=1;entryY=0.5;entryDx=0;entryDy=0;" edge="1" parent="1" source="npG9SeMGYt-nMeT8o7ZW-2" target="npG9SeMGYt-nMeT8o7ZW-26">
          <mxGeometry relative="1" as="geometry" />
        </mxCell>
        <mxCell id="npG9SeMGYt-nMeT8o7ZW-2" value="PESSOA" style="rounded=0;whiteSpace=wrap;html=1;" vertex="1" parent="1">
          <mxGeometry x="140" y="140" width="120" height="60" as="geometry" />
        </mxCell>
        <mxCell id="npG9SeMGYt-nMeT8o7ZW-37" style="edgeStyle=orthogonalEdgeStyle;rounded=0;orthogonalLoop=1;jettySize=auto;html=1;exitX=0.5;exitY=1;exitDx=0;exitDy=0;entryX=0.5;entryY=0;entryDx=0;entryDy=0;" edge="1" parent="1" source="npG9SeMGYt-nMeT8o7ZW-3" target="npG9SeMGYt-nMeT8o7ZW-36">
          <mxGeometry relative="1" as="geometry" />
        </mxCell>
        <mxCell id="npG9SeMGYt-nMeT8o7ZW-3" value="CARGO" style="rounded=0;whiteSpace=wrap;html=1;" vertex="1" parent="1">
          <mxGeometry x="510" y="140" width="120" height="60" as="geometry" />
        </mxCell>
        <mxCell id="npG9SeMGYt-nMeT8o7ZW-58" style="edgeStyle=orthogonalEdgeStyle;rounded=0;orthogonalLoop=1;jettySize=auto;html=1;exitX=0.5;exitY=1;exitDx=0;exitDy=0;entryX=0.5;entryY=0;entryDx=0;entryDy=0;" edge="1" parent="1" source="npG9SeMGYt-nMeT8o7ZW-4" target="npG9SeMGYt-nMeT8o7ZW-57">
          <mxGeometry relative="1" as="geometry" />
        </mxCell>
        <mxCell id="npG9SeMGYt-nMeT8o7ZW-72" style="edgeStyle=orthogonalEdgeStyle;rounded=0;orthogonalLoop=1;jettySize=auto;html=1;exitX=1;exitY=0.75;exitDx=0;exitDy=0;entryX=0;entryY=0;entryDx=0;entryDy=0;" edge="1" parent="1" source="npG9SeMGYt-nMeT8o7ZW-4" target="npG9SeMGYt-nMeT8o7ZW-69">
          <mxGeometry relative="1" as="geometry" />
        </mxCell>
        <mxCell id="npG9SeMGYt-nMeT8o7ZW-4" value="MOVIMENTACAO&lt;br&gt;CAIXA" style="rounded=0;whiteSpace=wrap;html=1;" vertex="1" parent="1">
          <mxGeometry x="320" y="350" width="110" height="50" as="geometry" />
        </mxCell>
        <mxCell id="npG9SeMGYt-nMeT8o7ZW-89" style="edgeStyle=orthogonalEdgeStyle;rounded=0;orthogonalLoop=1;jettySize=auto;html=1;exitX=0.5;exitY=1;exitDx=0;exitDy=0;entryX=0.5;entryY=0;entryDx=0;entryDy=0;" edge="1" parent="1" source="npG9SeMGYt-nMeT8o7ZW-5" target="npG9SeMGYt-nMeT8o7ZW-87">
          <mxGeometry relative="1" as="geometry" />
        </mxCell>
        <mxCell id="npG9SeMGYt-nMeT8o7ZW-5" value="FUNCIONARIO" style="rounded=0;whiteSpace=wrap;html=1;" vertex="1" parent="1">
          <mxGeometry x="610" y="350" width="100" height="50" as="geometry" />
        </mxCell>
        <mxCell id="npG9SeMGYt-nMeT8o7ZW-24" style="edgeStyle=orthogonalEdgeStyle;rounded=0;orthogonalLoop=1;jettySize=auto;html=1;exitX=1;exitY=1;exitDx=0;exitDy=0;entryX=0;entryY=0.75;entryDx=0;entryDy=0;" edge="1" parent="1" target="npG9SeMGYt-nMeT8o7ZW-2">
          <mxGeometry relative="1" as="geometry">
            <mxPoint x="89.39213778509952" y="180.17420154099602" as="sourcePoint" />
          </mxGeometry>
        </mxCell>
        <mxCell id="npG9SeMGYt-nMeT8o7ZW-23" style="edgeStyle=orthogonalEdgeStyle;rounded=0;orthogonalLoop=1;jettySize=auto;html=1;exitX=1;exitY=1;exitDx=0;exitDy=0;entryX=0;entryY=0.5;entryDx=0;entryDy=0;" edge="1" parent="1" source="npG9SeMGYt-nMeT8o7ZW-8" target="npG9SeMGYt-nMeT8o7ZW-2">
          <mxGeometry relative="1" as="geometry" />
        </mxCell>
        <mxCell id="npG9SeMGYt-nMeT8o7ZW-8" value="nome" style="ellipse;whiteSpace=wrap;html=1;" vertex="1" parent="1">
          <mxGeometry x="20" y="100" width="80" height="30" as="geometry" />
        </mxCell>
        <mxCell id="npG9SeMGYt-nMeT8o7ZW-19" style="edgeStyle=orthogonalEdgeStyle;rounded=0;orthogonalLoop=1;jettySize=auto;html=1;exitX=1;exitY=1;exitDx=0;exitDy=0;entryX=0;entryY=0;entryDx=0;entryDy=0;" edge="1" parent="1" source="npG9SeMGYt-nMeT8o7ZW-10" target="npG9SeMGYt-nMeT8o7ZW-2">
          <mxGeometry relative="1" as="geometry" />
        </mxCell>
        <mxCell id="npG9SeMGYt-nMeT8o7ZW-10" value="data_nasc" style="ellipse;whiteSpace=wrap;html=1;" vertex="1" parent="1">
          <mxGeometry x="40" y="60" width="80" height="30" as="geometry" />
        </mxCell>
        <mxCell id="npG9SeMGYt-nMeT8o7ZW-18" style="edgeStyle=orthogonalEdgeStyle;rounded=0;orthogonalLoop=1;jettySize=auto;html=1;exitX=1;exitY=1;exitDx=0;exitDy=0;entryX=0.5;entryY=0;entryDx=0;entryDy=0;" edge="1" parent="1" source="npG9SeMGYt-nMeT8o7ZW-11" target="npG9SeMGYt-nMeT8o7ZW-2">
          <mxGeometry relative="1" as="geometry" />
        </mxCell>
        <mxCell id="npG9SeMGYt-nMeT8o7ZW-11" value="idade" style="ellipse;whiteSpace=wrap;html=1;align=center;dashed=1;" vertex="1" parent="1">
          <mxGeometry x="120" y="60" width="90" height="30" as="geometry" />
        </mxCell>
        <mxCell id="npG9SeMGYt-nMeT8o7ZW-17" style="edgeStyle=orthogonalEdgeStyle;rounded=0;orthogonalLoop=1;jettySize=auto;html=1;exitX=0;exitY=1;exitDx=0;exitDy=0;entryX=0.75;entryY=0;entryDx=0;entryDy=0;" edge="1" parent="1" source="npG9SeMGYt-nMeT8o7ZW-12" target="npG9SeMGYt-nMeT8o7ZW-2">
          <mxGeometry relative="1" as="geometry" />
        </mxCell>
        <mxCell id="npG9SeMGYt-nMeT8o7ZW-12" value="email" style="ellipse;shape=doubleEllipse;margin=3;whiteSpace=wrap;html=1;align=center;" vertex="1" parent="1">
          <mxGeometry x="220" y="60" width="100" height="30" as="geometry" />
        </mxCell>
        <mxCell id="npG9SeMGYt-nMeT8o7ZW-16" style="edgeStyle=orthogonalEdgeStyle;rounded=0;orthogonalLoop=1;jettySize=auto;html=1;exitX=0;exitY=1;exitDx=0;exitDy=0;entryX=1;entryY=0.5;entryDx=0;entryDy=0;" edge="1" parent="1" source="npG9SeMGYt-nMeT8o7ZW-13" target="npG9SeMGYt-nMeT8o7ZW-2">
          <mxGeometry relative="1" as="geometry" />
        </mxCell>
        <mxCell id="npG9SeMGYt-nMeT8o7ZW-13" value="telefones" style="ellipse;shape=doubleEllipse;margin=3;whiteSpace=wrap;html=1;align=center;" vertex="1" parent="1">
          <mxGeometry x="260" y="90" width="100" height="20" as="geometry" />
        </mxCell>
        <mxCell id="npG9SeMGYt-nMeT8o7ZW-91" style="edgeStyle=orthogonalEdgeStyle;rounded=0;orthogonalLoop=1;jettySize=auto;html=1;exitX=0;exitY=0.25;exitDx=0;exitDy=0;entryX=0.75;entryY=0;entryDx=0;entryDy=0;" edge="1" parent="1" source="npG9SeMGYt-nMeT8o7ZW-26" target="npG9SeMGYt-nMeT8o7ZW-41">
          <mxGeometry relative="1" as="geometry" />
        </mxCell>
        <mxCell id="npG9SeMGYt-nMeT8o7ZW-26" value="" style="triangle;whiteSpace=wrap;html=1;direction=north;" vertex="1" parent="1">
          <mxGeometry x="160" y="220" width="69.5" height="30" as="geometry" />
        </mxCell>
        <mxCell id="npG9SeMGYt-nMeT8o7ZW-28" value="&lt;span style=&quot;border-bottom: 1px dotted&quot;&gt;id&lt;br&gt;&lt;/span&gt;" style="ellipse;whiteSpace=wrap;html=1;align=center;" vertex="1" parent="1">
          <mxGeometry x="10" y="160" width="80" height="40" as="geometry" />
        </mxCell>
        <mxCell id="npG9SeMGYt-nMeT8o7ZW-35" style="edgeStyle=orthogonalEdgeStyle;rounded=0;orthogonalLoop=1;jettySize=auto;html=1;exitX=0;exitY=1;exitDx=0;exitDy=0;entryX=0.25;entryY=0;entryDx=0;entryDy=0;" edge="1" parent="1" source="npG9SeMGYt-nMeT8o7ZW-31" target="npG9SeMGYt-nMeT8o7ZW-3">
          <mxGeometry relative="1" as="geometry" />
        </mxCell>
        <mxCell id="npG9SeMGYt-nMeT8o7ZW-31" value="&lt;span style=&quot;border-bottom: 1px dotted&quot;&gt;id&lt;br&gt;&lt;/span&gt;" style="ellipse;whiteSpace=wrap;html=1;align=center;" vertex="1" parent="1">
          <mxGeometry x="530" y="80" width="70" height="30" as="geometry" />
        </mxCell>
        <mxCell id="npG9SeMGYt-nMeT8o7ZW-32" style="edgeStyle=orthogonalEdgeStyle;rounded=0;orthogonalLoop=1;jettySize=auto;html=1;exitX=0.5;exitY=1;exitDx=0;exitDy=0;" edge="1" parent="1" source="npG9SeMGYt-nMeT8o7ZW-31" target="npG9SeMGYt-nMeT8o7ZW-31">
          <mxGeometry relative="1" as="geometry" />
        </mxCell>
        <mxCell id="npG9SeMGYt-nMeT8o7ZW-34" style="edgeStyle=orthogonalEdgeStyle;rounded=0;orthogonalLoop=1;jettySize=auto;html=1;exitX=0;exitY=1;exitDx=0;exitDy=0;entryX=1;entryY=0;entryDx=0;entryDy=0;" edge="1" parent="1" source="npG9SeMGYt-nMeT8o7ZW-33" target="npG9SeMGYt-nMeT8o7ZW-3">
          <mxGeometry relative="1" as="geometry" />
        </mxCell>
        <mxCell id="npG9SeMGYt-nMeT8o7ZW-33" value="Nome" style="ellipse;whiteSpace=wrap;html=1;" vertex="1" parent="1">
          <mxGeometry x="640" y="80" width="70" height="30" as="geometry" />
        </mxCell>
        <mxCell id="npG9SeMGYt-nMeT8o7ZW-36" value="possui" style="rhombus;whiteSpace=wrap;html=1;" vertex="1" parent="1">
          <mxGeometry x="525" y="240" width="90" height="60" as="geometry" />
        </mxCell>
        <mxCell id="npG9SeMGYt-nMeT8o7ZW-101" style="edgeStyle=orthogonalEdgeStyle;rounded=0;orthogonalLoop=1;jettySize=auto;html=1;exitX=0.5;exitY=1;exitDx=0;exitDy=0;entryX=0.5;entryY=0;entryDx=0;entryDy=0;" edge="1" parent="1" source="npG9SeMGYt-nMeT8o7ZW-41" target="npG9SeMGYt-nMeT8o7ZW-99">
          <mxGeometry relative="1" as="geometry" />
        </mxCell>
        <mxCell id="npG9SeMGYt-nMeT8o7ZW-41" value="CLIENTE" style="rounded=0;whiteSpace=wrap;html=1;" vertex="1" parent="1">
          <mxGeometry x="40" y="350" width="110" height="50" as="geometry" />
        </mxCell>
        <mxCell id="npG9SeMGYt-nMeT8o7ZW-48" style="edgeStyle=orthogonalEdgeStyle;rounded=0;orthogonalLoop=1;jettySize=auto;html=1;exitX=0;exitY=1;exitDx=0;exitDy=0;entryX=1;entryY=0;entryDx=0;entryDy=0;" edge="1" parent="1" source="npG9SeMGYt-nMeT8o7ZW-42" target="npG9SeMGYt-nMeT8o7ZW-5">
          <mxGeometry relative="1" as="geometry" />
        </mxCell>
        <mxCell id="npG9SeMGYt-nMeT8o7ZW-42" value="salario" style="ellipse;whiteSpace=wrap;html=1;" vertex="1" parent="1">
          <mxGeometry x="735" y="280" width="80" height="30" as="geometry" />
        </mxCell>
        <mxCell id="npG9SeMGYt-nMeT8o7ZW-49" style="edgeStyle=orthogonalEdgeStyle;rounded=0;orthogonalLoop=1;jettySize=auto;html=1;exitX=0;exitY=0.5;exitDx=0;exitDy=0;entryX=1;entryY=0.75;entryDx=0;entryDy=0;" edge="1" parent="1" source="npG9SeMGYt-nMeT8o7ZW-44" target="npG9SeMGYt-nMeT8o7ZW-5">
          <mxGeometry relative="1" as="geometry">
            <Array as="points">
              <mxPoint x="730" y="340" />
              <mxPoint x="730" y="370" />
              <mxPoint x="710" y="370" />
            </Array>
          </mxGeometry>
        </mxCell>
        <mxCell id="npG9SeMGYt-nMeT8o7ZW-44" value="data admissao" style="ellipse;whiteSpace=wrap;html=1;" vertex="1" parent="1">
          <mxGeometry x="750" y="320" width="80" height="40" as="geometry" />
        </mxCell>
        <mxCell id="npG9SeMGYt-nMeT8o7ZW-46" style="edgeStyle=orthogonalEdgeStyle;rounded=0;orthogonalLoop=1;jettySize=auto;html=1;exitX=0;exitY=1;exitDx=0;exitDy=0;entryX=0.25;entryY=0;entryDx=0;entryDy=0;" edge="1" parent="1" source="npG9SeMGYt-nMeT8o7ZW-45" target="npG9SeMGYt-nMeT8o7ZW-5">
          <mxGeometry relative="1" as="geometry" />
        </mxCell>
        <mxCell id="npG9SeMGYt-nMeT8o7ZW-45" value="&lt;span style=&quot;border-bottom: 1px dotted&quot;&gt;id&lt;br&gt;&lt;/span&gt;" style="ellipse;whiteSpace=wrap;html=1;align=center;" vertex="1" parent="1">
          <mxGeometry x="630" y="290" width="80" height="40" as="geometry" />
        </mxCell>
        <mxCell id="npG9SeMGYt-nMeT8o7ZW-50" value="possui" style="rhombus;whiteSpace=wrap;html=1;" vertex="1" parent="1">
          <mxGeometry x="490" y="345" width="70" height="60" as="geometry" />
        </mxCell>
        <mxCell id="npG9SeMGYt-nMeT8o7ZW-56" style="edgeStyle=orthogonalEdgeStyle;rounded=0;orthogonalLoop=1;jettySize=auto;html=1;exitX=0.5;exitY=1;exitDx=0;exitDy=0;entryX=0.102;entryY=-0.009;entryDx=0;entryDy=0;entryPerimeter=0;" edge="1" parent="1" source="npG9SeMGYt-nMeT8o7ZW-53" target="npG9SeMGYt-nMeT8o7ZW-4">
          <mxGeometry relative="1" as="geometry" />
        </mxCell>
        <mxCell id="npG9SeMGYt-nMeT8o7ZW-53" value="&lt;span style=&quot;border-bottom: 1px dotted&quot;&gt;id&lt;br&gt;&lt;/span&gt;" style="ellipse;whiteSpace=wrap;html=1;align=center;" vertex="1" parent="1">
          <mxGeometry x="280" y="290" width="80" height="30" as="geometry" />
        </mxCell>
        <mxCell id="npG9SeMGYt-nMeT8o7ZW-55" style="edgeStyle=orthogonalEdgeStyle;rounded=0;orthogonalLoop=1;jettySize=auto;html=1;exitX=0.5;exitY=1;exitDx=0;exitDy=0;entryX=0.893;entryY=-0.042;entryDx=0;entryDy=0;entryPerimeter=0;" edge="1" parent="1" source="npG9SeMGYt-nMeT8o7ZW-54" target="npG9SeMGYt-nMeT8o7ZW-4">
          <mxGeometry relative="1" as="geometry" />
        </mxCell>
        <mxCell id="npG9SeMGYt-nMeT8o7ZW-54" value="data" style="ellipse;whiteSpace=wrap;html=1;" vertex="1" parent="1">
          <mxGeometry x="390" y="290" width="70" height="30" as="geometry" />
        </mxCell>
        <mxCell id="npG9SeMGYt-nMeT8o7ZW-60" style="edgeStyle=orthogonalEdgeStyle;rounded=0;orthogonalLoop=1;jettySize=auto;html=1;exitX=0.5;exitY=1;exitDx=0;exitDy=0;entryX=0.5;entryY=0;entryDx=0;entryDy=0;" edge="1" parent="1" source="npG9SeMGYt-nMeT8o7ZW-57" target="npG9SeMGYt-nMeT8o7ZW-59">
          <mxGeometry relative="1" as="geometry" />
        </mxCell>
        <mxCell id="npG9SeMGYt-nMeT8o7ZW-57" value="possui" style="rhombus;whiteSpace=wrap;html=1;" vertex="1" parent="1">
          <mxGeometry x="340" y="440" width="70" height="60" as="geometry" />
        </mxCell>
        <mxCell id="npG9SeMGYt-nMeT8o7ZW-78" style="edgeStyle=orthogonalEdgeStyle;rounded=0;orthogonalLoop=1;jettySize=auto;html=1;exitX=0.5;exitY=1;exitDx=0;exitDy=0;entryX=0.5;entryY=0;entryDx=0;entryDy=0;" edge="1" parent="1" source="npG9SeMGYt-nMeT8o7ZW-59" target="npG9SeMGYt-nMeT8o7ZW-70">
          <mxGeometry relative="1" as="geometry" />
        </mxCell>
        <mxCell id="npG9SeMGYt-nMeT8o7ZW-59" value="COBRANÃA" style="rounded=0;whiteSpace=wrap;html=1;" vertex="1" parent="1">
          <mxGeometry x="320" y="550" width="110" height="50" as="geometry" />
        </mxCell>
        <mxCell id="npG9SeMGYt-nMeT8o7ZW-65" style="edgeStyle=orthogonalEdgeStyle;rounded=0;orthogonalLoop=1;jettySize=auto;html=1;exitX=1;exitY=0.5;exitDx=0;exitDy=0;entryX=0.25;entryY=0;entryDx=0;entryDy=0;" edge="1" parent="1" source="npG9SeMGYt-nMeT8o7ZW-61" target="npG9SeMGYt-nMeT8o7ZW-59">
          <mxGeometry relative="1" as="geometry" />
        </mxCell>
        <mxCell id="npG9SeMGYt-nMeT8o7ZW-61" value="data_hora" style="ellipse;whiteSpace=wrap;html=1;" vertex="1" parent="1">
          <mxGeometry x="220" y="470" width="70" height="30" as="geometry" />
        </mxCell>
        <mxCell id="npG9SeMGYt-nMeT8o7ZW-66" style="edgeStyle=orthogonalEdgeStyle;rounded=0;orthogonalLoop=1;jettySize=auto;html=1;exitX=1;exitY=0.5;exitDx=0;exitDy=0;entryX=0;entryY=0;entryDx=0;entryDy=0;" edge="1" parent="1" source="npG9SeMGYt-nMeT8o7ZW-62" target="npG9SeMGYt-nMeT8o7ZW-59">
          <mxGeometry relative="1" as="geometry" />
        </mxCell>
        <mxCell id="npG9SeMGYt-nMeT8o7ZW-62" value="status" style="ellipse;whiteSpace=wrap;html=1;" vertex="1" parent="1">
          <mxGeometry x="210" y="510" width="70" height="30" as="geometry" />
        </mxCell>
        <mxCell id="npG9SeMGYt-nMeT8o7ZW-67" style="edgeStyle=orthogonalEdgeStyle;rounded=0;orthogonalLoop=1;jettySize=auto;html=1;exitX=1;exitY=0.5;exitDx=0;exitDy=0;entryX=0;entryY=0.25;entryDx=0;entryDy=0;" edge="1" parent="1" source="npG9SeMGYt-nMeT8o7ZW-63" target="npG9SeMGYt-nMeT8o7ZW-59">
          <mxGeometry relative="1" as="geometry" />
        </mxCell>
        <mxCell id="npG9SeMGYt-nMeT8o7ZW-63" value="valor" style="ellipse;whiteSpace=wrap;html=1;" vertex="1" parent="1">
          <mxGeometry x="210" y="550" width="70" height="30" as="geometry" />
        </mxCell>
        <mxCell id="npG9SeMGYt-nMeT8o7ZW-68" style="edgeStyle=orthogonalEdgeStyle;rounded=0;orthogonalLoop=1;jettySize=auto;html=1;exitX=1;exitY=0.5;exitDx=0;exitDy=0;entryX=0;entryY=0.75;entryDx=0;entryDy=0;" edge="1" parent="1" source="npG9SeMGYt-nMeT8o7ZW-64" target="npG9SeMGYt-nMeT8o7ZW-59">
          <mxGeometry relative="1" as="geometry" />
        </mxCell>
        <mxCell id="npG9SeMGYt-nMeT8o7ZW-64" value="&lt;span style=&quot;border-bottom: 1px dotted&quot;&gt;id&lt;br&gt;&lt;/span&gt;" style="ellipse;whiteSpace=wrap;html=1;align=center;" vertex="1" parent="1">
          <mxGeometry x="210" y="590" width="80" height="30" as="geometry" />
        </mxCell>
        <mxCell id="npG9SeMGYt-nMeT8o7ZW-73" style="edgeStyle=orthogonalEdgeStyle;rounded=0;orthogonalLoop=1;jettySize=auto;html=1;exitX=1;exitY=0.5;exitDx=0;exitDy=0;entryX=0.639;entryY=0.025;entryDx=0;entryDy=0;entryPerimeter=0;" edge="1" parent="1" source="npG9SeMGYt-nMeT8o7ZW-69" target="npG9SeMGYt-nMeT8o7ZW-71">
          <mxGeometry relative="1" as="geometry" />
        </mxCell>
        <mxCell id="npG9SeMGYt-nMeT8o7ZW-69" value="possui" style="rhombus;whiteSpace=wrap;html=1;" vertex="1" parent="1">
          <mxGeometry x="466" y="455" width="70" height="60" as="geometry" />
        </mxCell>
        <mxCell id="npG9SeMGYt-nMeT8o7ZW-79" style="edgeStyle=orthogonalEdgeStyle;rounded=0;orthogonalLoop=1;jettySize=auto;html=1;exitX=0.5;exitY=1;exitDx=0;exitDy=0;" edge="1" parent="1" source="npG9SeMGYt-nMeT8o7ZW-70">
          <mxGeometry relative="1" as="geometry">
            <mxPoint x="375.30769230769215" y="750" as="targetPoint" />
          </mxGeometry>
        </mxCell>
        <mxCell id="npG9SeMGYt-nMeT8o7ZW-70" value="possui" style="rhombus;whiteSpace=wrap;html=1;" vertex="1" parent="1">
          <mxGeometry x="340" y="650" width="70" height="60" as="geometry" />
        </mxCell>
        <mxCell id="npG9SeMGYt-nMeT8o7ZW-71" value="CAIXA" style="rounded=0;whiteSpace=wrap;html=1;" vertex="1" parent="1">
          <mxGeometry x="530" y="560" width="110" height="50" as="geometry" />
        </mxCell>
        <mxCell id="npG9SeMGYt-nMeT8o7ZW-77" style="edgeStyle=orthogonalEdgeStyle;rounded=0;orthogonalLoop=1;jettySize=auto;html=1;exitX=0.5;exitY=0;exitDx=0;exitDy=0;entryX=0;entryY=0.75;entryDx=0;entryDy=0;" edge="1" parent="1" source="npG9SeMGYt-nMeT8o7ZW-74" target="npG9SeMGYt-nMeT8o7ZW-71">
          <mxGeometry relative="1" as="geometry" />
        </mxCell>
        <mxCell id="npG9SeMGYt-nMeT8o7ZW-74" value="&lt;span style=&quot;border-bottom: 1px dotted&quot;&gt;id&lt;br&gt;&lt;/span&gt;" style="ellipse;whiteSpace=wrap;html=1;align=center;" vertex="1" parent="1">
          <mxGeometry x="466" y="630" width="80" height="30" as="geometry" />
        </mxCell>
        <mxCell id="npG9SeMGYt-nMeT8o7ZW-76" style="edgeStyle=orthogonalEdgeStyle;rounded=0;orthogonalLoop=1;jettySize=auto;html=1;exitX=0.5;exitY=0;exitDx=0;exitDy=0;entryX=0.5;entryY=1;entryDx=0;entryDy=0;" edge="1" parent="1" source="npG9SeMGYt-nMeT8o7ZW-75" target="npG9SeMGYt-nMeT8o7ZW-71">
          <mxGeometry relative="1" as="geometry" />
        </mxCell>
        <mxCell id="npG9SeMGYt-nMeT8o7ZW-75" value="tipo" style="ellipse;whiteSpace=wrap;html=1;" vertex="1" parent="1">
          <mxGeometry x="560" y="640" width="70" height="30" as="geometry" />
        </mxCell>
        <mxCell id="npG9SeMGYt-nMeT8o7ZW-80" value="FORMA&amp;nbsp;&lt;br&gt;COBRANÃA" style="rounded=0;whiteSpace=wrap;html=1;" vertex="1" parent="1">
          <mxGeometry x="320" y="750" width="110" height="50" as="geometry" />
        </mxCell>
        <mxCell id="npG9SeMGYt-nMeT8o7ZW-83" style="edgeStyle=orthogonalEdgeStyle;rounded=0;orthogonalLoop=1;jettySize=auto;html=1;exitX=0;exitY=0.5;exitDx=0;exitDy=0;entryX=1;entryY=0;entryDx=0;entryDy=0;" edge="1" parent="1" source="npG9SeMGYt-nMeT8o7ZW-81" target="npG9SeMGYt-nMeT8o7ZW-80">
          <mxGeometry relative="1" as="geometry" />
        </mxCell>
        <mxCell id="npG9SeMGYt-nMeT8o7ZW-81" value="&lt;span style=&quot;border-bottom: 1px dotted&quot;&gt;id&lt;br&gt;&lt;/span&gt;" style="ellipse;whiteSpace=wrap;html=1;align=center;" vertex="1" parent="1">
          <mxGeometry x="466" y="730" width="80" height="30" as="geometry" />
        </mxCell>
        <mxCell id="npG9SeMGYt-nMeT8o7ZW-86" style="edgeStyle=orthogonalEdgeStyle;rounded=0;orthogonalLoop=1;jettySize=auto;html=1;exitX=0;exitY=0.5;exitDx=0;exitDy=0;entryX=1;entryY=0.75;entryDx=0;entryDy=0;" edge="1" parent="1" source="npG9SeMGYt-nMeT8o7ZW-82" target="npG9SeMGYt-nMeT8o7ZW-80">
          <mxGeometry relative="1" as="geometry" />
        </mxCell>
        <mxCell id="npG9SeMGYt-nMeT8o7ZW-82" value="Nome" style="ellipse;whiteSpace=wrap;html=1;" vertex="1" parent="1">
          <mxGeometry x="471" y="780" width="70" height="30" as="geometry" />
        </mxCell>
        <mxCell id="npG9SeMGYt-nMeT8o7ZW-87" value="possui" style="rhombus;whiteSpace=wrap;html=1;" vertex="1" parent="1">
          <mxGeometry x="625" y="920" width="70" height="60" as="geometry" />
        </mxCell>
        <mxCell id="npG9SeMGYt-nMeT8o7ZW-98" style="edgeStyle=orthogonalEdgeStyle;rounded=0;orthogonalLoop=1;jettySize=auto;html=1;exitX=1;exitY=0.5;exitDx=0;exitDy=0;entryX=0.5;entryY=0;entryDx=0;entryDy=0;" edge="1" parent="1" source="npG9SeMGYt-nMeT8o7ZW-92" target="npG9SeMGYt-nMeT8o7ZW-41">
          <mxGeometry relative="1" as="geometry" />
        </mxCell>
        <mxCell id="npG9SeMGYt-nMeT8o7ZW-92" value="&lt;span style=&quot;border-bottom: 1px dotted&quot;&gt;id&lt;br&gt;&lt;/span&gt;" style="ellipse;whiteSpace=wrap;html=1;align=center;" vertex="1" parent="1">
          <mxGeometry y="250" width="80" height="30" as="geometry" />
        </mxCell>
        <mxCell id="npG9SeMGYt-nMeT8o7ZW-95" style="edgeStyle=orthogonalEdgeStyle;rounded=0;orthogonalLoop=1;jettySize=auto;html=1;exitX=0;exitY=1;exitDx=0;exitDy=0;entryX=0;entryY=0.5;entryDx=0;entryDy=0;" edge="1" parent="1" source="npG9SeMGYt-nMeT8o7ZW-94" target="npG9SeMGYt-nMeT8o7ZW-41">
          <mxGeometry relative="1" as="geometry" />
        </mxCell>
        <mxCell id="npG9SeMGYt-nMeT8o7ZW-94" value="data&lt;br&gt;criaÃ§Ã£o" style="ellipse;whiteSpace=wrap;html=1;" vertex="1" parent="1">
          <mxGeometry y="290" width="70" height="40" as="geometry" />
        </mxCell>
        <mxCell id="npG9SeMGYt-nMeT8o7ZW-102" style="edgeStyle=orthogonalEdgeStyle;rounded=0;orthogonalLoop=1;jettySize=auto;html=1;exitX=0.5;exitY=1;exitDx=0;exitDy=0;entryX=0.5;entryY=0;entryDx=0;entryDy=0;" edge="1" parent="1" source="npG9SeMGYt-nMeT8o7ZW-99" target="npG9SeMGYt-nMeT8o7ZW-100">
          <mxGeometry relative="1" as="geometry" />
        </mxCell>
        <mxCell id="npG9SeMGYt-nMeT8o7ZW-99" value="possui" style="rhombus;whiteSpace=wrap;html=1;" vertex="1" parent="1">
          <mxGeometry x="60" y="470" width="70" height="60" as="geometry" />
        </mxCell>
        <mxCell id="npG9SeMGYt-nMeT8o7ZW-128" style="edgeStyle=orthogonalEdgeStyle;rounded=0;orthogonalLoop=1;jettySize=auto;html=1;exitX=0.5;exitY=1;exitDx=0;exitDy=0;entryX=0.5;entryY=0;entryDx=0;entryDy=0;" edge="1" parent="1" source="npG9SeMGYt-nMeT8o7ZW-100" target="npG9SeMGYt-nMeT8o7ZW-126">
          <mxGeometry relative="1" as="geometry" />
        </mxCell>
        <mxCell id="npG9SeMGYt-nMeT8o7ZW-100" value="LIVRO" style="rounded=0;whiteSpace=wrap;html=1;" vertex="1" parent="1">
          <mxGeometry x="40" y="630" width="110" height="50" as="geometry" />
        </mxCell>
        <mxCell id="npG9SeMGYt-nMeT8o7ZW-117" style="edgeStyle=orthogonalEdgeStyle;rounded=0;orthogonalLoop=1;jettySize=auto;html=1;exitX=1;exitY=0.5;exitDx=0;exitDy=0;entryX=0;entryY=0.25;entryDx=0;entryDy=0;" edge="1" parent="1" source="npG9SeMGYt-nMeT8o7ZW-104" target="npG9SeMGYt-nMeT8o7ZW-100">
          <mxGeometry relative="1" as="geometry" />
        </mxCell>
        <mxCell id="npG9SeMGYt-nMeT8o7ZW-104" value="valor_total" style="ellipse;whiteSpace=wrap;html=1;align=center;dashed=1;" vertex="1" parent="1">
          <mxGeometry x="-110" y="550" width="90" height="30" as="geometry" />
        </mxCell>
        <mxCell id="npG9SeMGYt-nMeT8o7ZW-118" style="edgeStyle=orthogonalEdgeStyle;rounded=0;orthogonalLoop=1;jettySize=auto;html=1;exitX=1;exitY=0;exitDx=0;exitDy=0;entryX=0;entryY=0.5;entryDx=0;entryDy=0;" edge="1" parent="1" source="npG9SeMGYt-nMeT8o7ZW-106" target="npG9SeMGYt-nMeT8o7ZW-100">
          <mxGeometry relative="1" as="geometry" />
        </mxCell>
        <mxCell id="npG9SeMGYt-nMeT8o7ZW-106" value="data_hora" style="ellipse;whiteSpace=wrap;html=1;" vertex="1" parent="1">
          <mxGeometry x="-100" y="590" width="70" height="30" as="geometry" />
        </mxCell>
        <mxCell id="npG9SeMGYt-nMeT8o7ZW-120" style="edgeStyle=orthogonalEdgeStyle;rounded=0;orthogonalLoop=1;jettySize=auto;html=1;exitX=1;exitY=0.5;exitDx=0;exitDy=0;entryX=0;entryY=1;entryDx=0;entryDy=0;" edge="1" parent="1" source="npG9SeMGYt-nMeT8o7ZW-108" target="npG9SeMGYt-nMeT8o7ZW-100">
          <mxGeometry relative="1" as="geometry" />
        </mxCell>
        <mxCell id="npG9SeMGYt-nMeT8o7ZW-108" value="&lt;span style=&quot;border-bottom: 1px dotted&quot;&gt;id&lt;br&gt;&lt;/span&gt;" style="ellipse;whiteSpace=wrap;html=1;align=center;" vertex="1" parent="1">
          <mxGeometry x="-105" y="670" width="80" height="30" as="geometry" />
        </mxCell>
        <mxCell id="npG9SeMGYt-nMeT8o7ZW-134" style="edgeStyle=orthogonalEdgeStyle;rounded=0;orthogonalLoop=1;jettySize=auto;html=1;exitX=1;exitY=1;exitDx=0;exitDy=0;entryX=0.644;entryY=-0.053;entryDx=0;entryDy=0;entryPerimeter=0;" edge="1" parent="1" source="npG9SeMGYt-nMeT8o7ZW-126" target="npG9SeMGYt-nMeT8o7ZW-132">
          <mxGeometry relative="1" as="geometry" />
        </mxCell>
        <mxCell id="npG9SeMGYt-nMeT8o7ZW-126" value="possui" style="rhombus;whiteSpace=wrap;html=1;" vertex="1" parent="1">
          <mxGeometry x="70" y="765" width="70" height="60" as="geometry" />
        </mxCell>
        <mxCell id="npG9SeMGYt-nMeT8o7ZW-129" value="tÃ­tulo" style="ellipse;whiteSpace=wrap;html=1;" vertex="1" parent="1">
          <mxGeometry x="-30" y="530" width="70" height="30" as="geometry" />
        </mxCell>
        <mxCell id="npG9SeMGYt-nMeT8o7ZW-131" style="edgeStyle=orthogonalEdgeStyle;rounded=0;orthogonalLoop=1;jettySize=auto;html=1;exitX=1;exitY=0.5;exitDx=0;exitDy=0;entryX=0;entryY=0.75;entryDx=0;entryDy=0;" edge="1" parent="1" source="npG9SeMGYt-nMeT8o7ZW-130" target="npG9SeMGYt-nMeT8o7ZW-100">
          <mxGeometry relative="1" as="geometry" />
        </mxCell>
        <mxCell id="npG9SeMGYt-nMeT8o7ZW-130" value="autor" style="ellipse;whiteSpace=wrap;html=1;" vertex="1" parent="1">
          <mxGeometry x="-105" y="630" width="70" height="30" as="geometry" />
        </mxCell>
        <mxCell id="npG9SeMGYt-nMeT8o7ZW-151" style="edgeStyle=orthogonalEdgeStyle;rounded=0;orthogonalLoop=1;jettySize=auto;html=1;exitX=1;exitY=0.75;exitDx=0;exitDy=0;entryX=0;entryY=0.5;entryDx=0;entryDy=0;" edge="1" parent="1" source="npG9SeMGYt-nMeT8o7ZW-132" target="npG9SeMGYt-nMeT8o7ZW-150">
          <mxGeometry relative="1" as="geometry" />
        </mxCell>
        <mxCell id="npG9SeMGYt-nMeT8o7ZW-154" style="edgeStyle=orthogonalEdgeStyle;rounded=0;orthogonalLoop=1;jettySize=auto;html=1;exitX=0.5;exitY=1;exitDx=0;exitDy=0;entryX=0.5;entryY=0;entryDx=0;entryDy=0;" edge="1" parent="1" source="npG9SeMGYt-nMeT8o7ZW-132">
          <mxGeometry relative="1" as="geometry">
            <mxPoint x="145" y="1040" as="targetPoint" />
          </mxGeometry>
        </mxCell>
        <mxCell id="npG9SeMGYt-nMeT8o7ZW-132" value="PEDIDOS" style="rounded=0;whiteSpace=wrap;html=1;" vertex="1" parent="1">
          <mxGeometry x="90" y="920" width="110" height="50" as="geometry" />
        </mxCell>
        <mxCell id="npG9SeMGYt-nMeT8o7ZW-141" style="edgeStyle=orthogonalEdgeStyle;rounded=0;orthogonalLoop=1;jettySize=auto;html=1;exitX=1;exitY=0.5;exitDx=0;exitDy=0;entryX=0.25;entryY=0;entryDx=0;entryDy=0;" edge="1" parent="1" source="npG9SeMGYt-nMeT8o7ZW-135" target="npG9SeMGYt-nMeT8o7ZW-132">
          <mxGeometry relative="1" as="geometry" />
        </mxCell>
        <mxCell id="npG9SeMGYt-nMeT8o7ZW-135" value="valor" style="ellipse;whiteSpace=wrap;html=1;" vertex="1" parent="1">
          <mxGeometry x="-10" y="860" width="70" height="30" as="geometry" />
        </mxCell>
        <mxCell id="npG9SeMGYt-nMeT8o7ZW-143" style="edgeStyle=orthogonalEdgeStyle;rounded=0;orthogonalLoop=1;jettySize=auto;html=1;exitX=1;exitY=0.5;exitDx=0;exitDy=0;entryX=0;entryY=0.5;entryDx=0;entryDy=0;" edge="1" parent="1" source="npG9SeMGYt-nMeT8o7ZW-140" target="npG9SeMGYt-nMeT8o7ZW-132">
          <mxGeometry relative="1" as="geometry" />
        </mxCell>
        <mxCell id="npG9SeMGYt-nMeT8o7ZW-140" value="qtd" style="ellipse;whiteSpace=wrap;html=1;" vertex="1" parent="1">
          <mxGeometry x="-30" y="900" width="70" height="30" as="geometry" />
        </mxCell>
        <mxCell id="npG9SeMGYt-nMeT8o7ZW-150" value="possui" style="rhombus;whiteSpace=wrap;html=1;" vertex="1" parent="1">
          <mxGeometry x="350" y="990" width="70" height="60" as="geometry" />
        </mxCell>
        <mxCell id="npG9SeMGYt-nMeT8o7ZW-165" value="REGISTRO DE&lt;br&gt;HORA&lt;br&gt;" style="rounded=0;whiteSpace=wrap;html=1;" vertex="1" parent="1">
          <mxGeometry x="960" y="630" width="110" height="50" as="geometry" />
        </mxCell>
        <mxCell id="npG9SeMGYt-nMeT8o7ZW-167" value="possui" style="rhombus;whiteSpace=wrap;html=1;" vertex="1" parent="1">
          <mxGeometry x="910" y="440" width="70" height="70" as="geometry" />
        </mxCell>
        <mxCell id="npG9SeMGYt-nMeT8o7ZW-170" value="possui" style="rhombus;whiteSpace=wrap;html=1;" vertex="1" parent="1">
          <mxGeometry x="980" y="915" width="70" height="70" as="geometry" />
        </mxCell>
        <mxCell id="npG9SeMGYt-nMeT8o7ZW-172" value="PAGAMENTO" style="rounded=0;whiteSpace=wrap;html=1;" vertex="1" parent="1">
          <mxGeometry x="780" y="925" width="110" height="50" as="geometry" />
        </mxCell>
        <mxCell id="npG9SeMGYt-nMeT8o7ZW-185" value="" style="endArrow=none;html=1;rounded=0;exitX=0.5;exitY=0;exitDx=0;exitDy=0;" edge="1" parent="1" source="npG9SeMGYt-nMeT8o7ZW-170">
          <mxGeometry width="50" height="50" relative="1" as="geometry">
            <mxPoint x="970" y="730" as="sourcePoint" />
            <mxPoint x="1020" y="680" as="targetPoint" />
          </mxGeometry>
        </mxCell>
        <mxCell id="npG9SeMGYt-nMeT8o7ZW-188" value="" style="endArrow=none;html=1;rounded=0;exitX=1;exitY=0.5;exitDx=0;exitDy=0;" edge="1" parent="1" source="npG9SeMGYt-nMeT8o7ZW-172">
          <mxGeometry width="50" height="50" relative="1" as="geometry">
            <mxPoint x="930" y="1000" as="sourcePoint" />
            <mxPoint x="980" y="950" as="targetPoint" />
          </mxGeometry>
        </mxCell>
        <mxCell id="npG9SeMGYt-nMeT8o7ZW-189" value="" style="endArrow=none;html=1;rounded=0;exitX=1;exitY=0.5;exitDx=0;exitDy=0;" edge="1" parent="1" source="npG9SeMGYt-nMeT8o7ZW-87">
          <mxGeometry width="50" height="50" relative="1" as="geometry">
            <mxPoint x="730" y="1000" as="sourcePoint" />
            <mxPoint x="780" y="950" as="targetPoint" />
          </mxGeometry>
        </mxCell>
        <mxCell id="npG9SeMGYt-nMeT8o7ZW-190" value="" style="endArrow=none;html=1;rounded=0;exitX=1;exitY=0.5;exitDx=0;exitDy=0;entryX=0;entryY=0.5;entryDx=0;entryDy=0;" edge="1" parent="1" source="npG9SeMGYt-nMeT8o7ZW-132" target="npG9SeMGYt-nMeT8o7ZW-87">
          <mxGeometry width="50" height="50" relative="1" as="geometry">
            <mxPoint x="570" y="1000" as="sourcePoint" />
            <mxPoint x="620" y="950" as="targetPoint" />
          </mxGeometry>
        </mxCell>
        <mxCell id="npG9SeMGYt-nMeT8o7ZW-191" value="" style="endArrow=none;html=1;rounded=0;exitX=0.5;exitY=0;exitDx=0;exitDy=0;entryX=1;entryY=1;entryDx=0;entryDy=0;" edge="1" parent="1" source="npG9SeMGYt-nMeT8o7ZW-165" target="npG9SeMGYt-nMeT8o7ZW-167">
          <mxGeometry width="50" height="50" relative="1" as="geometry">
            <mxPoint x="960" y="520" as="sourcePoint" />
            <mxPoint x="1015" y="470" as="targetPoint" />
          </mxGeometry>
        </mxCell>
        <mxCell id="npG9SeMGYt-nMeT8o7ZW-193" value="" style="endArrow=none;html=1;rounded=0;exitX=0;exitY=0.5;exitDx=0;exitDy=0;" edge="1" parent="1" source="npG9SeMGYt-nMeT8o7ZW-167">
          <mxGeometry width="50" height="50" relative="1" as="geometry">
            <mxPoint x="660" y="450" as="sourcePoint" />
            <mxPoint x="710" y="400" as="targetPoint" />
          </mxGeometry>
        </mxCell>
        <mxCell id="npG9SeMGYt-nMeT8o7ZW-195" value="" style="endArrow=none;html=1;rounded=0;exitX=1;exitY=0.5;exitDx=0;exitDy=0;" edge="1" parent="1" source="npG9SeMGYt-nMeT8o7ZW-50">
          <mxGeometry width="50" height="50" relative="1" as="geometry">
            <mxPoint x="560" y="375" as="sourcePoint" />
            <mxPoint x="610" y="370" as="targetPoint" />
          </mxGeometry>
        </mxCell>
        <mxCell id="npG9SeMGYt-nMeT8o7ZW-196" value="" style="endArrow=none;html=1;rounded=0;exitX=1;exitY=0.5;exitDx=0;exitDy=0;" edge="1" parent="1" source="npG9SeMGYt-nMeT8o7ZW-4">
          <mxGeometry width="50" height="50" relative="1" as="geometry">
            <mxPoint x="440" y="420" as="sourcePoint" />
            <mxPoint x="490" y="375" as="targetPoint" />
          </mxGeometry>
        </mxCell>
        <mxCell id="npG9SeMGYt-nMeT8o7ZW-205" style="edgeStyle=orthogonalEdgeStyle;rounded=0;orthogonalLoop=1;jettySize=auto;html=1;exitX=0;exitY=0.5;exitDx=0;exitDy=0;entryX=0.887;entryY=-0.085;entryDx=0;entryDy=0;entryPerimeter=0;" edge="1" parent="1" source="npG9SeMGYt-nMeT8o7ZW-197" target="npG9SeMGYt-nMeT8o7ZW-165">
          <mxGeometry relative="1" as="geometry" />
        </mxCell>
        <mxCell id="npG9SeMGYt-nMeT8o7ZW-197" value="data_Inicio" style="ellipse;whiteSpace=wrap;html=1;" vertex="1" parent="1">
          <mxGeometry x="1120" y="555" width="70" height="30" as="geometry" />
        </mxCell>
        <mxCell id="npG9SeMGYt-nMeT8o7ZW-206" style="edgeStyle=orthogonalEdgeStyle;rounded=0;orthogonalLoop=1;jettySize=auto;html=1;exitX=0;exitY=0.5;exitDx=0;exitDy=0;entryX=1;entryY=0.25;entryDx=0;entryDy=0;" edge="1" parent="1" source="npG9SeMGYt-nMeT8o7ZW-198" target="npG9SeMGYt-nMeT8o7ZW-165">
          <mxGeometry relative="1" as="geometry" />
        </mxCell>
        <mxCell id="npG9SeMGYt-nMeT8o7ZW-198" value="data_fim" style="ellipse;whiteSpace=wrap;html=1;" vertex="1" parent="1">
          <mxGeometry x="1120" y="600" width="70" height="30" as="geometry" />
        </mxCell>
        <mxCell id="npG9SeMGYt-nMeT8o7ZW-207" style="edgeStyle=orthogonalEdgeStyle;rounded=0;orthogonalLoop=1;jettySize=auto;html=1;exitX=0;exitY=0.5;exitDx=0;exitDy=0;" edge="1" parent="1" source="npG9SeMGYt-nMeT8o7ZW-199">
          <mxGeometry relative="1" as="geometry">
            <mxPoint x="1080" y="666" as="targetPoint" />
          </mxGeometry>
        </mxCell>
        <mxCell id="npG9SeMGYt-nMeT8o7ZW-199" value="ocorrÃncia" style="ellipse;whiteSpace=wrap;html=1;" vertex="1" parent="1">
          <mxGeometry x="1130" y="650" width="70" height="30" as="geometry" />
        </mxCell>
        <mxCell id="npG9SeMGYt-nMeT8o7ZW-209" style="edgeStyle=orthogonalEdgeStyle;rounded=0;orthogonalLoop=1;jettySize=auto;html=1;exitX=0;exitY=0.5;exitDx=0;exitDy=0;entryX=0.75;entryY=1;entryDx=0;entryDy=0;" edge="1" parent="1" source="npG9SeMGYt-nMeT8o7ZW-200" target="npG9SeMGYt-nMeT8o7ZW-165">
          <mxGeometry relative="1" as="geometry" />
        </mxCell>
        <mxCell id="npG9SeMGYt-nMeT8o7ZW-200" value="n_horas" style="ellipse;whiteSpace=wrap;html=1;align=center;dashed=1;" vertex="1" parent="1">
          <mxGeometry x="1120" y="700" width="90" height="30" as="geometry" />
        </mxCell>
        <mxCell id="npG9SeMGYt-nMeT8o7ZW-204" style="edgeStyle=orthogonalEdgeStyle;rounded=0;orthogonalLoop=1;jettySize=auto;html=1;exitX=0.5;exitY=1;exitDx=0;exitDy=0;entryX=0;entryY=0.5;entryDx=0;entryDy=0;" edge="1" parent="1" source="npG9SeMGYt-nMeT8o7ZW-203" target="npG9SeMGYt-nMeT8o7ZW-165">
          <mxGeometry relative="1" as="geometry" />
        </mxCell>
        <mxCell id="npG9SeMGYt-nMeT8o7ZW-203" value="&lt;span style=&quot;border-bottom: 1px dotted&quot;&gt;id&lt;br&gt;&lt;/span&gt;" style="ellipse;whiteSpace=wrap;html=1;align=center;" vertex="1" parent="1">
          <mxGeometry x="827" y="600" width="80" height="30" as="geometry" />
        </mxCell>
        <mxCell id="npG9SeMGYt-nMeT8o7ZW-222" style="edgeStyle=orthogonalEdgeStyle;rounded=0;orthogonalLoop=1;jettySize=auto;html=1;exitX=0.5;exitY=0;exitDx=0;exitDy=0;entryX=1;entryY=1;entryDx=0;entryDy=0;" edge="1" parent="1" source="npG9SeMGYt-nMeT8o7ZW-210" target="npG9SeMGYt-nMeT8o7ZW-172">
          <mxGeometry relative="1" as="geometry" />
        </mxCell>
        <mxCell id="npG9SeMGYt-nMeT8o7ZW-210" value="mÃªs/ano" style="ellipse;whiteSpace=wrap;html=1;" vertex="1" parent="1">
          <mxGeometry x="890" y="1030" width="70" height="30" as="geometry" />
        </mxCell>
        <mxCell id="npG9SeMGYt-nMeT8o7ZW-223" style="edgeStyle=orthogonalEdgeStyle;rounded=0;orthogonalLoop=1;jettySize=auto;html=1;exitX=0.5;exitY=0;exitDx=0;exitDy=0;entryX=0.75;entryY=1;entryDx=0;entryDy=0;" edge="1" parent="1" source="npG9SeMGYt-nMeT8o7ZW-211" target="npG9SeMGYt-nMeT8o7ZW-172">
          <mxGeometry relative="1" as="geometry" />
        </mxCell>
        <mxCell id="npG9SeMGYt-nMeT8o7ZW-211" value="valor" style="ellipse;whiteSpace=wrap;html=1;" vertex="1" parent="1">
          <mxGeometry x="820" y="1060" width="70" height="40" as="geometry" />
        </mxCell>
        <mxCell id="npG9SeMGYt-nMeT8o7ZW-224" style="edgeStyle=orthogonalEdgeStyle;rounded=0;orthogonalLoop=1;jettySize=auto;html=1;exitX=1;exitY=0;exitDx=0;exitDy=0;" edge="1" parent="1" source="npG9SeMGYt-nMeT8o7ZW-212">
          <mxGeometry relative="1" as="geometry">
            <mxPoint x="810" y="980" as="targetPoint" />
          </mxGeometry>
        </mxCell>
        <mxCell id="npG9SeMGYt-nMeT8o7ZW-212" value="data_hora" style="ellipse;whiteSpace=wrap;html=1;" vertex="1" parent="1">
          <mxGeometry x="740" y="1060" width="70" height="40" as="geometry" />
        </mxCell>
        <mxCell id="npG9SeMGYt-nMeT8o7ZW-225" style="edgeStyle=orthogonalEdgeStyle;rounded=0;orthogonalLoop=1;jettySize=auto;html=1;exitX=1;exitY=0;exitDx=0;exitDy=0;entryX=0;entryY=1;entryDx=0;entryDy=0;" edge="1" parent="1" source="npG9SeMGYt-nMeT8o7ZW-219" target="npG9SeMGYt-nMeT8o7ZW-172">
          <mxGeometry relative="1" as="geometry" />
        </mxCell>
        <mxCell id="npG9SeMGYt-nMeT8o7ZW-219" value="&lt;span style=&quot;border-bottom: 1px dotted&quot;&gt;id&lt;br&gt;&lt;/span&gt;" style="ellipse;whiteSpace=wrap;html=1;align=center;" vertex="1" parent="1">
          <mxGeometry x="670" y="1030" width="80" height="30" as="geometry" />
        </mxCell>
        <mxCell id="npG9SeMGYt-nMeT8o7ZW-234" value="AVALIAÃÃO" style="rounded=0;whiteSpace=wrap;html=1;" vertex="1" parent="1">
          <mxGeometry x="1080" y="200" width="120" height="60" as="geometry" />
        </mxCell>
        <mxCell id="npG9SeMGYt-nMeT8o7ZW-239" value="pertence" style="rhombus;whiteSpace=wrap;html=1;" vertex="1" parent="1">
          <mxGeometry x="940" y="330" width="80" height="60" as="geometry" />
        </mxCell>
        <mxCell id="npG9SeMGYt-nMeT8o7ZW-243" value="" style="endArrow=none;html=1;rounded=0;exitX=1;exitY=0.5;exitDx=0;exitDy=0;entryX=0.5;entryY=1;entryDx=0;entryDy=0;" edge="1" parent="1" source="npG9SeMGYt-nMeT8o7ZW-239" target="npG9SeMGYt-nMeT8o7ZW-234">
          <mxGeometry width="50" height="50" relative="1" as="geometry">
            <mxPoint x="1090" y="320" as="sourcePoint" />
            <mxPoint x="1140" y="270" as="targetPoint" />
          </mxGeometry>
        </mxCell>
        <mxCell id="npG9SeMGYt-nMeT8o7ZW-245" value="" style="endArrow=none;html=1;rounded=0;" edge="1" parent="1">
          <mxGeometry width="50" height="50" relative="1" as="geometry">
            <mxPoint x="710" y="370" as="sourcePoint" />
            <mxPoint x="940" y="360" as="targetPoint" />
          </mxGeometry>
        </mxCell>
        <mxCell id="npG9SeMGYt-nMeT8o7ZW-250" style="edgeStyle=orthogonalEdgeStyle;rounded=0;orthogonalLoop=1;jettySize=auto;html=1;exitX=0;exitY=0.5;exitDx=0;exitDy=0;entryX=0.863;entryY=0.043;entryDx=0;entryDy=0;entryPerimeter=0;" edge="1" parent="1" source="npG9SeMGYt-nMeT8o7ZW-246" target="npG9SeMGYt-nMeT8o7ZW-235">
          <mxGeometry relative="1" as="geometry" />
        </mxCell>
        <mxCell id="npG9SeMGYt-nMeT8o7ZW-246" value="nota" style="ellipse;whiteSpace=wrap;html=1;" vertex="1" parent="1">
          <mxGeometry x="1270" y="140" width="70" height="30" as="geometry" />
        </mxCell>
        <mxCell id="npG9SeMGYt-nMeT8o7ZW-251" style="edgeStyle=orthogonalEdgeStyle;rounded=0;orthogonalLoop=1;jettySize=auto;html=1;exitX=0;exitY=0.5;exitDx=0;exitDy=0;entryX=1;entryY=0.25;entryDx=0;entryDy=0;" edge="1" parent="1" source="npG9SeMGYt-nMeT8o7ZW-247" target="npG9SeMGYt-nMeT8o7ZW-235">
          <mxGeometry relative="1" as="geometry" />
        </mxCell>
        <mxCell id="npG9SeMGYt-nMeT8o7ZW-247" value="mensagem" style="ellipse;whiteSpace=wrap;html=1;" vertex="1" parent="1">
          <mxGeometry x="1300" y="195" width="70" height="30" as="geometry" />
        </mxCell>
        <mxCell id="npG9SeMGYt-nMeT8o7ZW-253" style="edgeStyle=orthogonalEdgeStyle;rounded=0;orthogonalLoop=1;jettySize=auto;html=1;exitX=0;exitY=0.5;exitDx=0;exitDy=0;entryX=1;entryY=0.75;entryDx=0;entryDy=0;" edge="1" parent="1" source="npG9SeMGYt-nMeT8o7ZW-248" target="npG9SeMGYt-nMeT8o7ZW-235">
          <mxGeometry relative="1" as="geometry" />
        </mxCell>
        <mxCell id="npG9SeMGYt-nMeT8o7ZW-248" value="data_hora" style="ellipse;whiteSpace=wrap;html=1;" vertex="1" parent="1">
          <mxGeometry x="1300" y="250" width="70" height="30" as="geometry" />
        </mxCell>
      </root>
    </mxGraphModel>
  </diagram>
</mxfile>
